<svg width="82" height="82" viewBox="0 0 82 82" fill="none" xmlns="http://www.w3.org/2000/svg">
<path fill-rule="evenodd" clip-rule="evenodd" d="M17.0833 10.25H64.9167C68.6907 10.25 71.75 13.3094 71.75 17.0833V64.9167C71.75 68.6907 68.6907 71.75 64.9167 71.75H17.0833C13.3094 71.75 10.25 68.6907 10.25 64.9167V17.0833C10.25 13.3094 13.3094 10.25 17.0833 10.25ZM27.3333 61.5C28.2768 61.5 29.0417 60.735 29.0417 59.7917V35.875C29.0417 34.9317 28.2768 34.1667 27.3333 34.1667H22.2083C21.2649 34.1667 20.5 34.9317 20.5 35.875V59.7917C20.5 60.735 21.2649 61.5 22.2083 61.5H27.3333ZM24.7708 30.75C21.9404 30.75 19.6458 28.4555 19.6458 25.625C19.6458 22.7945 21.9404 20.5 24.7708 20.5C27.6013 20.5 29.8958 22.7945 29.8958 25.625C29.8958 28.4555 27.6013 30.75 24.7708 30.75ZM59.7917 61.5C60.735 61.5 61.5 60.735 61.5 59.7917V44.075C61.611 38.6452 57.5968 34.0113 52.2067 33.3467C48.4381 33.0024 44.7867 34.7625 42.7083 37.925V35.875C42.7083 34.9317 41.9433 34.1667 41 34.1667H35.875C34.9317 34.1667 34.1667 34.9317 34.1667 35.875V59.7917C34.1667 60.735 34.9317 61.5 35.875 61.5H41C41.9433 61.5 42.7083 60.735 42.7083 59.7917V46.9792C42.7083 44.1488 45.003 41.8542 47.8333 41.8542C50.6637 41.8542 52.9583 44.1488 52.9583 46.9792V59.7917C52.9583 60.735 53.7233 61.5 54.6667 61.5H59.7917Z" fill="black"/>
</svg>
